<?xml version="1.0" encoding="UTF-8" standalone="no"?>
<!DOCTYPE svg PUBLIC "-//W3C//DTD SVG 1.1//EN" "http://www.w3.org/Graphics/SVG/1.1/DTD/svg11.dtd">
<svg version="1.1" xmlns="http://www.w3.org/2000/svg" xmlns:xlink="http://www.w3.org/1999/xlink" preserveAspectRatio="xMidYMid meet" viewBox="0 0 640 640" width="640" height="640"><defs><path d="M540.07 314.37C540.07 419.7 441.46 505.21 320 505.21C198.54 505.21 99.93 419.7 99.93 314.37C99.93 209.04 198.54 123.52 320 123.52C441.46 123.52 540.07 209.04 540.07 314.37Z" id="g23PIIgCkl"></path><linearGradient id="gradientg62NG55K6f" gradientUnits="userSpaceOnUse" x1="320" y1="123.52" x2="320" y2="505.21"><stop style="stop-color: #1e43ff;stop-opacity: 1" offset="0%"></stop><stop style="stop-color: #010000;stop-opacity: 1" offset="100%"></stop></linearGradient><path d="M310.14 470.7L308.73 460.14L300.28 454.51L292.54 446.76L282.68 443.94L279.86 434.08L285.49 425.63L291.83 417.89L283.38 411.55L272.82 411.55L260.85 406.62L255.21 398.17L247.46 391.83L236.2 389.01L226.34 384.08L217.18 378.45L206.62 371.41L200.28 362.25L193.94 353.1L184.79 340.42L181.97 330.56L181.27 320L181.27 308.03L181.27 297.46L181.27 286.9L186.2 277.04L194.65 271.41L196.76 260.85L196.76 250.28L198.17 239.72L198.17 228.45L189.01 224.23L179.15 220L186.9 213.66L193.24 205.92L203.8 208.03L210.14 200.28L220 197.46L225.63 205.92L231.27 214.37L237.61 222.82L245.35 229.15L243.24 219.3L250.99 212.96L257.32 220.7L262.25 229.86L259.44 239.72L265.07 231.27L274.23 235.49L284.79 234.08L277.04 227.75L286.2 222.82L294.65 229.15L302.39 236.2L310.85 241.83L306.62 250.99L296.76 253.8L288.31 248.17L286.9 237.61L278.45 243.24L270.7 250.99L267.18 260.85L272.82 269.3L278.45 279.86L286.9 285.49L289.01 275.63L287.61 265.07L289.72 254.51L300.28 255.92L308.73 261.55L317.89 266.48L327.04 271.41L334.79 278.45L341.83 286.2L348.17 293.94L338.31 291.13L331.27 282.68L321.41 286.2L312.25 290.42L303.1 295.35L313.66 293.24L323.52 296.06L334.08 297.46L324.93 301.69L315.07 305.21L308.73 313.66L303.1 322.11L300.28 331.97L294.65 340.42L285.49 346.06L285.49 356.62L289.72 365.77L279.86 362.96L272.11 355.92L262.96 350.99L252.39 351.69L241.83 353.8L234.79 361.55L234.79 372.11L245.35 376.34L254.51 372.11L262.96 377.75L265.07 388.31L275.63 389.01L277.75 398.87L286.2 404.51L296.06 406.62L305.21 401.69L315.77 400.99L326.34 401.69L336.9 401.69L347.46 397.46L358.03 400.28L368.59 403.1L379.15 403.1L388.31 408.03L398.17 410.85L409.44 409.44L420 408.03L421.41 418.59L415.07 426.34L410.14 435.49L400.99 440.42L391.83 444.65L383.38 450.28L374.93 455.92L365.07 459.44L355.21 461.55L345.35 465.07L334.79 467.89L324.93 470L314.37 471.41" id="aGu7ncLgs"></path><path d="M254.51 146.48L262.25 153.52L255.92 161.27L246.06 164.79L241.13 173.95L233.38 180.28L241.13 187.33L251.69 185.92L244.65 193.66L254.51 191.55L260.14 183.1L265.77 174.65L276.34 173.24L282.68 165.5L293.24 165.5L298.87 156.34L309.44 156.34L320 156.34L330.56 159.16L341.13 158.45L352.39 156.34L362.25 158.45L372.11 155.64L381.27 161.27L390.42 165.5L398.87 171.83L397.46 182.4L405.92 188.03L413.66 194.37L422.11 202.82L431.97 205.64L436.9 196.48L429.86 188.74L439.01 183.81L442.54 193.66L445.35 203.52L449.58 212.68L454.51 221.83L444.65 217.61L435.49 212.68L435.49 223.24L441.13 233.1L446.76 223.95L456.62 227.47L461.55 236.62L470.7 242.26L472.11 252.82L479.86 259.16L486.2 266.9L489.01 276.76L490.42 287.33L490.42 300L492.54 309.86L496.76 319.02L505.21 325.35L515.77 325.35L525.63 320.43L529.86 310.57L529.86 300L525.63 290.14L524.23 279.58L522.82 269.02L518.59 258.45L513.66 248.59L510.14 238.03L506.62 228.17L502.39 219.02L495.35 211.27L491.13 220.43L494.65 230.28L489.01 239.44L479.15 237.33L477.75 226.76L481.97 217.61L486.9 208.45L484.08 198.59L479.15 189.44L470.7 183.1L460.85 178.17L452.39 171.83L443.24 163.38L434.79 157.75L424.93 151.41L414.37 148.59L404.51 145.07L394.65 142.96L384.79 140.85L374.23 138.03L364.37 135.92L353.8 135.21L342.54 134.51L331.97 133.1L321.41 133.1L310.85 133.1L300.28 134.51L289.01 135.92L279.15 138.03L269.3 140.85L259.44 144.37" id="f4QmXwe0EY"></path><path d="M354.51 247.19L346.06 253.52L335.49 251.41L335.49 240.85L343.24 233.81L354.51 233.1L365.07 232.4L375.63 231.69L386.2 233.81L395.35 239.44L403.8 245.07L410.85 252.82L404.51 260.57L403.8 272.54L407.32 282.4L400.99 290.85L391.13 285.21L383.38 278.88L378.45 269.72L370 263.38L360.85 257.04L354.51 249.3" id="a5XnBNEpJx"></path><path d="M438.31 250.28L427.04 257.32L419.3 250.99L423.52 241.83L434.08 238.31L440.42 246.06L431.97 252.39" id="e3kGAmYt2l"></path><path d="M390.42 523.52L379.86 523.52L370 527.04L362.25 533.38L364.37 544.65L373.52 549.58L384.08 550.28L372.82 551.69L367.18 560.14L366.48 570.7L370.7 580.56L381.27 581.97L391.13 579.15L393.24 569.3L400.99 562.96L410.85 558.73L421.41 556.62L410.85 558.73L400.99 562.25L396.06 571.41L403.8 579.15L414.37 584.79L424.93 582.68L431.97 574.93L436.9 565.77L439.01 555.21L439.01 544.65L439.01 534.08L433.38 525.63L431.27 536.2L433.38 546.06L434.79 557.32L434.79 568.59L439.01 578.45L448.87 576.34L454.51 567.89L455.92 557.32L455.21 567.89L460.85 576.34L467.89 568.59L470 558.73L470.7 570.7L470.7 581.27L470.7 591.83L468.59 581.97L468.59 570L472.82 560.85L482.68 558.73L490.42 565.77L485.49 574.93L474.93 576.34L467.89 568.59L475.63 575.63L486.2 575.63L494.65 570L497.46 560.14L489.01 554.51L498.87 557.32L507.32 562.96L512.96 571.41L504.51 577.04L495.35 572.82L505.21 574.93L515.77 574.93L524.93 570L529.86 560.85L522.11 553.8L514.37 560.14L516.48 571.41L524.23 577.75L534.08 579.86L542.54 574.23" id="kyAzP3v3o"></path><path d="M454.75 550.48L455.45 553.3" id="c2vUKVuYlf"></path><path d="M170.62 558.8L160.06 558.1L152.31 564.44L155.83 574.3L165.69 578.52L176.25 579.93L183.3 572.18L186.11 562.32L188.93 552.46L191.75 542.61L193.86 532.75L193.86 522.18L188.23 513.73L181.89 522.89L180.48 534.15L181.89 544.72L183.3 555.28L184 566.55L188.93 575.7L200.2 576.41L207.24 568.66L213.58 559.51L222.73 555.28L214.99 562.32L207.94 570.07L207.24 580.63L217.1 585.56L227.66 586.97L236.11 581.34L237.52 570.77L232.59 561.62L224.14 555.28L214.28 557.39L219.21 566.55L230.48 567.25L239.63 562.32L243.86 552.46L245.97 542.61L245.97 532.04L244.56 543.31L244.56 553.87L245.97 564.44L245.97 575L253.01 582.75L260.76 576.41L263.58 566.55L271.32 560.21L281.89 558.8L271.32 559.51L263.58 565.85L262.17 576.41L267.8 584.86L276.96 580.63L281.18 571.48L281.89 560.92L280.48 571.48L280.48 582.04L291.04 581.34L295.27 572.18L297.38 562.32L298.79 551.76L298.79 541.2L295.97 531.34L287.52 536.97L286.82 547.54L288.23 558.1L291.04 568.66L298.08 577.11L308.65 577.11" id="e1AJatM4ig"></path><path d="M168.28 512.73L178.85 512.73L194.61 512.73L205.61 512.73" id="d1ZGqgg45A"></path><path d="M234.89 543.06L245.45 543.06L256.01 543.06" id="dEzA27LLB"></path></defs><g><g><g><g><filter id="shadow5620117" x="-47.07" y="-23.48" width="778.14" height="755.69" filterUnits="userSpaceOnUse" primitiveUnits="userSpaceOnUse"><feFlood></feFlood><feComposite in2="SourceAlpha" operator="in"></feComposite><feGaussianBlur stdDeviation="4.24"></feGaussianBlur><feOffset dx="44" dy="-80" result="afterOffset"></feOffset><feFlood flood-color="#e39e00" flood-opacity="0.82"></feFlood><feComposite in2="afterOffset" operator="in"></feComposite><feMorphology operator="dilate" radius="26"></feMorphology><feComposite in2="SourceAlpha" operator="out"></feComposite></filter><path d="M540.07 314.37C540.07 419.7 441.46 505.21 320 505.21C198.54 505.21 99.93 419.7 99.93 314.37C99.93 209.04 198.54 123.52 320 123.52C441.46 123.52 540.07 209.04 540.07 314.37Z" id="cuGklTM09" fill="white" fill-opacity="1" filter="url(#shadow5620117)"></path></g><g><filter id="shadow7078537" x="45.93" y="69.52" width="572.14" height="535.69" filterUnits="userSpaceOnUse" primitiveUnits="userSpaceOnUse"><feFlood></feFlood><feComposite in2="SourceAlpha" operator="in"></feComposite><feGaussianBlur stdDeviation="1"></feGaussianBlur><feOffset dx="24" dy="-46" result="afterOffset"></feOffset><feFlood flood-color="#000000" flood-opacity="1"></feFlood><feComposite in2="afterOffset" operator="in"></feComposite><feMorphology operator="dilate" radius="1"></feMorphology><feComposite in2="SourceAlpha" operator="out"></feComposite></filter><path d="M540.07 314.37C540.07 419.7 441.46 505.21 320 505.21C198.54 505.21 99.93 419.7 99.93 314.37C99.93 209.04 198.54 123.52 320 123.52C441.46 123.52 540.07 209.04 540.07 314.37Z" id="a31yhViFpT" fill="white" fill-opacity="1" filter="url(#shadow7078537)"></path></g><use xlink:href="#g23PIIgCkl" opacity="1" fill="url(#gradientg62NG55K6f)"></use></g><g><use xlink:href="#aGu7ncLgs" opacity="1" fill="#4fd90f" fill-opacity="1"></use><g><use xlink:href="#aGu7ncLgs" opacity="1" fill-opacity="0" stroke="#000000" stroke-width="1" stroke-opacity="1"></use></g></g><g><use xlink:href="#f4QmXwe0EY" opacity="1" fill="#41d90f" fill-opacity="1"></use><g><use xlink:href="#f4QmXwe0EY" opacity="1" fill-opacity="0" stroke="#000000" stroke-width="1" stroke-opacity="1"></use></g></g><g><use xlink:href="#a5XnBNEpJx" opacity="1" fill="#64d90f" fill-opacity="1"></use><g><use xlink:href="#a5XnBNEpJx" opacity="1" fill-opacity="0" stroke="#000000" stroke-width="1" stroke-opacity="1"></use></g></g><g><use xlink:href="#e3kGAmYt2l" opacity="1" fill="#41d90f" fill-opacity="1"></use><g><use xlink:href="#e3kGAmYt2l" opacity="1" fill-opacity="0" stroke="#000000" stroke-width="1" stroke-opacity="1"></use></g></g><g><g><use xlink:href="#kyAzP3v3o" opacity="1" fill-opacity="0" stroke="#000000" stroke-width="1" stroke-opacity="1"></use></g></g><g><g><use xlink:href="#c2vUKVuYlf" opacity="1" fill-opacity="0" stroke="#000000" stroke-width="1" stroke-opacity="1"></use></g></g><g><g><use xlink:href="#e1AJatM4ig" opacity="1" fill-opacity="0" stroke="#000000" stroke-width="1" stroke-opacity="1"></use></g></g><g><g><use xlink:href="#d1ZGqgg45A" opacity="1" fill-opacity="0" stroke="#000000" stroke-width="1" stroke-opacity="1"></use></g></g><g><g><use xlink:href="#dEzA27LLB" opacity="1" fill-opacity="0" stroke="#000000" stroke-width="1" stroke-opacity="1"></use></g></g></g></g></svg>